Coordinates
version=1
nRows=10
nColumns=60
inDegrees=yes

Units are S.I. units (second, meters, Newtons, ...)
If the header above contains a line with 'inDegrees', this indicates whether rotational values are in degrees (yes) or radians (no).

endheader
time	pelvis_tilt	pelvis_list	pelvis_rotation	pelvis_tx	pelvis_ty	pelvis_tz	hip_flexion_r	hip_adduction_r	hip_rotation_r	knee_angle_r_beta	knee_angle_r	ankle_angle_r	subtalar_angle_r	mtp_angle_r	hip_flexion_l	hip_adduction_l	hip_rotation_l	knee_angle_l_beta	knee_angle_l	ankle_angle_l	subtalar_angle_l	mtp_angle_l	L5_S1_Flex_Ext	L5_S1_Lat_Bending	L5_S1_axial_rotation	L4_L5_Flex_Ext	L4_L5_Lat_Bending	L4_L5_axial_rotation	L3_L4_Flex_Ext	L3_L4_Lat_Bending	L3_L4_axial_rotation	L2_L3_Flex_Ext	L2_L3_Lat_Bending	L2_L3_axial_rotation	L1_L2_Flex_Ext	L1_L2_Lat_Bending	L1_L2_axial_rotation	L1_T12_Flex_Ext	L1_T12_Lat_Bending	L1_T12_axial_rotation	Abs_r3	Abs_r2	Abs_r1	Abs_t1	Abs_t2	arm_flex_r	arm_add_r	arm_rot_r	elbow_flex_r	pro_sup_r	wrist_flex_r	wrist_dev_r	arm_flex_l	arm_add_l	arm_rot_l	elbow_flex_l	pro_sup_l	wrist_flex_l	wrist_dev_l
     98.43000000	      0.30402606	    -13.54216512	     92.92684182	      0.40178985	      0.85250022	      0.41765775	     47.74689639	     -6.61324745	      0.91480395	      0.69257861	    -39.68183138	      7.90380931	      0.00000000	      0.00000000	     48.41639908	     -5.21629459	     -1.09581253	      0.66821433	    -38.28586104	      7.46295590	      0.00000000	      0.00000000	    -11.17608943	      0.30634920	     -0.25714526	    -20.75511567	      0.40744443	     -0.27321684	    -18.36119732	      0.74485743	     -0.27321684	    -12.77315260	      0.74485743	     -0.22500210	    -10.37811664	      0.62470728	     -0.20893053	     -6.38601750	      0.47453490	     -0.19285895	    -79.82968916	      3.46548336	     -1.43016481	      0.00000000	      0.00000000	     91.59864554	    -13.01257068	     19.68830940	     27.31173610	     72.58411935	     25.86916304	     -0.44472821	     96.54169661	    -15.58265291	     43.13289973	     21.72944987	     53.00588034	     30.54663520	     -5.15879790
     98.44000000	      0.34728232	    -13.53074625	     92.93377585	      0.40174329	      0.85196224	      0.41796003	     47.79004380	     -6.58919974	      0.90485295	      0.69319741	    -39.71728569	      7.90947767	      0.00000000	      0.00000000	     48.48186785	     -5.25441785	     -1.08221732	      0.66899369	    -38.33051502	      7.47456596	      0.00000000	      0.00000000	    -11.18203867	      0.30389145	     -0.26402133	    -20.76616402	      0.40417563	     -0.28052266	    -18.37097134	      0.73888167	     -0.28052266	    -12.77995200	      0.73888167	     -0.23101866	    -10.38364111	      0.61969544	     -0.21451733	     -6.38941690	      0.47072785	     -0.19801600	    -79.87218404	      3.43768084	     -1.46840742	      0.00000000	      0.00000000	     91.29657317	    -13.11040169	     19.46377126	     27.98630706	     72.02505024	     25.86475652	     -0.43732368	     96.48371146	    -15.62868706	     42.64351709	     21.84899173	     52.71042538	     30.55777998	     -5.16570868
     98.45000000	      0.39969605	    -13.43698606	     92.84937715	      0.40197370	      0.85135636	      0.41830719	     47.91550653	     -6.50219777	      0.83388843	      0.69893551	    -40.04605483	      7.94496002	      0.00000000	      0.00000000	     48.65383802	     -5.39590391	     -1.09026950	      0.67714302	    -38.79743701	      7.52653727	      0.00000000	      0.00000000	    -11.19696105	      0.28781931	     -0.26528531	    -20.79387636	      0.38279968	     -0.28186565	    -18.39548730	      0.69980387	     -0.28186565	    -12.79700678	      0.69980387	     -0.23212465	    -10.39749803	      0.58692114	     -0.21554432	     -6.39794354	      0.44583211	     -0.19896399	    -79.97877305	      3.25586961	     -1.47543733	      0.00000000	      0.00000000	     90.96024803	    -13.18520143	     19.19597150	     28.74509986	     71.57930559	     25.81912089	     -0.40043801	     96.39326210	    -15.84653681	     42.06969740	     22.28414088	     52.52760928	     30.64883623	     -5.14697375
     98.46000000	      0.43177733	    -13.48615672	     92.80737408	      0.40206704	      0.85066811	      0.41857304	     48.10931773	     -6.46188007	      0.79795303	      0.70249140	    -40.24979221	      8.01020183	      0.00000000	      0.00000000	     48.89150799	     -5.49576629	     -1.22493466	      0.68220664	    -39.08756094	      7.56402755	      0.00000000	      0.00000000	    -11.18549047	      0.28220768	     -0.28925906	    -20.77257435	      0.37533621	     -0.30733775	    -18.37664229	      0.68615975	     -0.30733775	    -12.78389706	      0.68615975	     -0.25310168	    -10.38684645	      0.57547789	     -0.23502299	     -6.39138925	      0.43713969	     -0.21694430	    -79.89683988	      3.19238968	     -1.60877213	      0.00000000	      0.00000000	     90.46906890	    -12.90981040	     17.57245719	     29.69075250	     75.03366813	     24.57812053	      0.46543923	     95.77440304	    -16.28359319	     39.23860436	     23.41054630	     56.27212925	     31.68461465	     -3.80776760
     98.47000000	      0.45181602	    -13.39943537	     92.75503556	      0.40218854	      0.85035973	      0.41888542	     48.11940635	     -6.42112048	      0.76418392	      0.70445325	    -40.36219796	      8.00691136	      0.00000000	      0.00000000	     48.91677536	     -5.54589473	     -1.16736139	      0.68495942	    -39.24528364	      7.49599463	      0.00000000	      0.00000000	    -11.18736973	      0.27368574	     -0.27657019	    -20.77606433	      0.36400204	     -0.29385583	    -18.37972974	      0.66543951	     -0.29385583	    -12.78604487	      0.66543951	     -0.24199892	    -10.38859154	      0.55809996	     -0.22471328	     -6.39246307	      0.42393921	     -0.20742764	    -79.91026327	      3.09598785	     -1.53820042	      0.00000000	      0.00000000	     90.16212958	    -13.04459766	     17.41357571	     30.19471423	     74.56281758	     24.58482267	      0.48801255	     95.60746996	    -16.32047083	     38.84382674	     23.66461968	     56.04295234	     31.71034179	     -3.81091130
     98.48000000	      0.53248547	    -13.35898681	     92.76163416	      0.40224250	      0.85004277	      0.41913243	     48.15392898	     -6.35712685	      0.71547346	      0.70642395	    -40.47511087	      8.00166617	      0.00000000	      0.00000000	     49.02690653	     -5.64329103	     -1.17909555	      0.68844448	    -39.44496299	      7.37940351	      0.00000000	      0.00000000	    -11.18202694	      0.27685399	     -0.27254487	    -20.76614223	      0.36821581	     -0.28957893	    -18.37095206	      0.67314279	     -0.28957893	    -12.77993859	      0.67314279	     -0.23847676	    -10.38363022	      0.56456066	     -0.22144271	     -6.38941019	      0.42884683	     -0.20440865	    -79.87210022	      3.13182771	     -1.51581281	      0.00000000	      0.00000000	     89.86256719	    -13.16664887	     17.47789288	     30.83870780	     74.86552324	     24.48205974	      0.67357800	     95.16291913	    -16.69555003	     38.28081686	     24.66403403	     56.61773901	     31.63161163	     -3.66173078
     98.49000000	      0.53760789	    -13.27428043	     92.72941168	      0.40234456	      0.84997938	      0.41941287	     48.12372563	     -6.34330841	      0.67508169	      0.70702121	    -40.50933135	      7.99181276	      0.00000000	      0.00000000	     48.99058643	     -5.66824054	     -1.14566847	      0.68930393	    -39.49420587	      7.32493925	      0.00000000	      0.00000000	    -11.17877551	      0.27166499	     -0.25968314	    -20.76010400	      0.36131444	     -0.27591334	    -18.36561029	      0.66052626	     -0.27591334	    -12.77622253	      0.66052626	     -0.22722275	    -10.38061094	      0.55397925	     -0.21099255	     -6.38755233	      0.42080907	     -0.19476236	    -79.84887560	      3.07312872	     -1.44427974	      0.00000000	      0.00000000	     89.60520355	    -13.23774014	     17.33975078	     31.12145931	     74.56024169	     24.45749177	      0.69804519	     94.97350145	    -16.65727741	     38.01258745	     24.80705621	     56.45772749	     31.61438176	     -3.64617947
     98.50000000	      0.56249255	    -13.16084869	     92.69634605	      0.40246304	      0.85001031	      0.41962769	     48.04106473	     -6.31284659	      0.62834568	      0.70781022	    -40.55453840	      7.96379623	      0.00000000	      0.00000000	     48.92844196	     -5.72246922	     -1.11913496	      0.69036246	    -39.55485542	      7.21325711	      0.00000000	      0.00000000	    -11.17572918	      0.26919426	     -0.23600651	    -20.75444665	      0.35802837	     -0.25075692	    -18.36060546	      0.65451893	     -0.25075692	    -12.77274088	      0.65451893	     -0.20650570	    -10.37778211	      0.54894094	     -0.19175529	     -6.38581165	      0.41698191	     -0.17700489	    -79.82711593	      3.04517935	     -1.31259743	      0.00000000	      0.00000000	     89.40621078	    -13.32507910	     17.22862130	     31.26934379	     74.47209441	     24.38555439	      0.73719459	     94.73248935	    -16.60393406	     37.82278848	     25.05597619	     56.43646183	     31.53784243	     -3.60808073
     98.51000000	      0.62736525	    -13.04708197	     92.69778672	      0.40258377	      0.85025058	      0.41979741	     47.90319831	     -6.25444360	      0.55409158	      0.70685040	    -40.49954482	      7.90173829	      0.00000000	      0.00000000	     48.83545918	     -5.78869618	     -1.07076490	      0.69033927	    -39.55352638	      7.07832032	      0.00000000	      0.00000000	    -11.17741551	      0.27476703	     -0.20909953	    -20.75757835	      0.36544015	     -0.22216825	    -18.36337595	      0.66806856	     -0.22216825	    -12.77466819	      0.66806856	     -0.18296209	    -10.37934805	      0.56030493	     -0.16989337	     -6.38677522	      0.42561413	     -0.15682464	    -79.83916127	      3.10821960	     -1.16294883	      0.00000000	      0.00000000	     89.21067627	    -13.38561871	     17.11566511	     31.43123460	     74.61715028	     24.14763593	      0.81817884	     94.46773697	    -16.57123060	     37.58877252	     25.37883988	     56.63057783	     31.21099422	     -3.48987257
     98.52000000	      0.61299554	    -12.97410188	     92.68654159	      0.40268796	      0.85043937	      0.42001195	     47.82559798	     -6.26144095	      0.51993516	      0.70634539	    -40.47060989	      7.88395083	      0.00000000	      0.00000000	     48.75826697	     -5.76885175	     -1.03002870	      0.69006992	    -39.53809421	      7.05622072	      0.00000000	      0.00000000	    -11.16698963	      0.27106317	     -0.19736983	    -20.73821644	      0.36051402	     -0.20970545	    -18.34624726	      0.65906300	     -0.20970545	    -12.76275245	      0.65906300	     -0.17269860	    -10.36966657	      0.55275203	     -0.16036299	     -6.38081787	      0.41987686	     -0.14802737	    -79.76469023	      3.06632085	     -1.09771179	      0.00000000	      0.00000000	     89.05094269	    -13.38244159	     17.06000457	     31.38171560	     74.62127646	     24.08918209	      0.84481712	     94.22657802	    -16.45340793	     37.52973945	     25.46763416	     56.62154324	     31.14138031	     -3.45755876
